    <svg 
    id="gurucodes-logo"
    data-name="gurucodes logo" 
    xmlns="http://www.w3.org/2000/svg" 
    xmlns:xlink="http://www.w3.org/1999/xlink" 
    viewBox="0 0 50 50"><defs><style>.cls-1{fill:url(#logo-linear-gradient);}</style><linearGradient id="logo-linear-gradient" x1="70.38" y1="512.5" x2="953.62" y2="512.5" gradientUnits="userSpaceOnUse"><stop offset="0.01" stop-color="#a855f7"/><stop offset="1" stop-color="#d946ef"/></linearGradient></defs><title>gurucodes</title><path class="cls-1"     d="M 25 0 C 22 0 19.5 2.5 19.5 5.5 C 19.5 8.5 22 11 25 11 C 28 11 30.5 8.5 30.5 5.5 C 30.5 2.5 28 0 25 0 Z M 25 12.09375 C 21.898438 12.09375 16.914063 13.988281 16.3125 14.1875 C 15.3125 14.585938 14.394531 15.492188 14.09375 16.59375 L 11.6875 23.40625 C 11.6875 23.40625 7.898438 25.792969 6.5 26.59375 C 5 27.492188 4.5 28.6875 5 29.6875 C 5.101563 29.988281 5.394531 30.210938 5.59375 30.3125 C 6.492188 28.613281 8.085938 27.59375 10.1875 27.59375 C 10.988281 27.59375 11.804688 27.800781 12.40625 28 C 13.304688 27.5 14.101563 27.105469 14.5 26.90625 C 15.101563 26.507813 15.289063 26.386719 15.6875 25.6875 C 15.886719 25.289063 16.894531 23.210938 17.59375 21.8125 L 17.59375 28.8125 L 14.90625 29.5 L 25 34.5 L 35.09375 29.40625 L 32.40625 28.8125 L 32.40625 21.8125 C 33.105469 23.210938 34.113281 25.289063 34.3125 25.6875 C 34.710938 26.386719 34.894531 26.5 35.59375 27 C 35.894531 27.199219 36.6875 27.59375 37.6875 28.09375 C 38.386719 27.792969 39.207031 27.6875 39.90625 27.6875 C 41.90625 27.6875 43.601563 28.707031 44.5 30.40625 C 44.800781 30.304688 44.992188 30.113281 45.09375 29.8125 C 45.59375 28.914063 45.09375 27.585938 43.59375 26.6875 C 42.09375 25.886719 38.40625 23.5 38.40625 23.5 L 36 16.6875 C 35.699219 15.585938 34.8125 14.710938 33.8125 14.3125 C 33.210938 14.011719 28.101563 12.09375 25 12.09375 Z M 39.96875 29.625 C 39.292969 29.621094 38.617188 29.792969 38.09375 30.09375 L 17.90625 40.3125 C 16.605469 40.914063 15.992188 42.511719 16.59375 43.8125 C 17.492188 45.710938 19.695313 45.292969 20.09375 45.09375 L 41.5 35.8125 C 42.898438 35.210938 43.710938 33.304688 42.8125 31.40625 C 42.25 30.15625 41.09375 29.636719 39.96875 29.625 Z M 10.03125 29.6875 C 8.90625 29.714844 7.75 30.21875 7.1875 31.40625 C 6.289063 33.40625 7.101563 35.3125 8.5 35.8125 L 16.09375 39.09375 C 16.394531 38.894531 16.695313 38.699219 17.09375 38.5 L 22.8125 35.59375 L 11.90625 30.09375 C 11.382813 29.832031 10.707031 29.671875 10.03125 29.6875 Z M 33.40625 41.5 L 27.5 44 L 29.90625 45 C 30.304688 45.199219 32.507813 45.585938 33.40625 43.6875 C 33.707031 42.988281 33.707031 42.101563 33.40625 41.5 Z M 11.90625 48 C 11.355469 48.050781 10.949219 48.542969 11 49.09375 C 11.050781 49.644531 11.542969 50.050781 12.09375 50 L 37.90625 50 C 38.265625 50.003906 38.601563 49.816406 38.785156 49.503906 C 38.964844 49.191406 38.964844 48.808594 38.785156 48.496094 C 38.601563 48.183594 38.265625 47.996094 37.90625 48 L 12.09375 48 C 12.0625 48 12.03125 48 12 48 C 11.96875 48 11.9375 48 11.90625 48 Z"/></svg>
