<svg xmlns="http://www.w3.org/2000/svg" fill="#C285D1" height="40" viewBox="0 -960 960 960" width="40"><path d="M442.609-185.357q-15.391-14.691-15.5-36.666Q427-244 443.334-260.333l167.001-167.001H199q-22.017 0-37.341-14.956-15.325-14.956-15.325-38.166 0-22.211 15.325-37.544 15.324-15.333 37.341-15.333h411.335L443.334-701.334Q427-716.03 427.167-738.182q.167-22.151 15.524-37.485 16.357-15.666 37.833-15.666t37.809 15.666l259 258.667q8.334 7.334 12.167 16.681 3.833 9.348 3.833 19.652 0 11-3.863 20.4-3.864 9.4-12.137 17.6l-259 259q-16.363 16.334-37.848 15.5Q459-169 442.609-185.357Z"/></svg>