<svg xmlns="http://www.w3.org/2000/svg" fill="#C285D1" height="40" viewBox="0 -960 960 960" width="40"><path d="M237-196.666h109.667v-256.667h267.332v256.667H723v-365.001l-243-182L237-562v365.334Zm0 105.999q-44.575 0-75.287-31.412Q131-153.492 131-196.666v-365.668q0-24.675 10.865-46.884 10.864-22.209 32.135-37.448l242.001-182.667q14.863-9 31.102-14.667 16.239-5.666 33.082-5.666 16.842 0 32.938 5.666 16.096 5.667 30.876 14.667L786-646.666q21.51 15.599 32.588 37.692 11.078 22.094 11.078 46.64v365.668q0 43.174-30.908 74.587Q767.85-90.667 723-90.667H520.334v-269h-80.001v269H237Zm243-379.666Z"/></svg>